<?xml version="1.0" encoding="utf-8"?>
<svg version="1.1" width="512px" height="512px" xmlns="http://www.w3.org/2000/svg">
  <defs>
    <radialGradient gradientUnits="userSpaceOnUse" cx="432.804" cy="45.844" r="256.246" id="gradient-1" gradientTransform="matrix(0.678546, 0.019595, -0.018429, 0.638209, -37.733043, 210.637057)">
      <stop offset="0" style="stop-color: rgba(255, 255, 255, 0);"/>
      <stop offset="1" style="stop-color: rgba(46, 46, 46, 0.8);"/>
    </radialGradient>
  </defs>
  <path d="M 477.689 38.047 L 38.412 38.047 C 18.192 38.047 1.804 54.437 1.804 74.66 L 1.804 440.784 C 1.804 461.007 18.192 477.397 38.412 477.397 L 477.689 477.397 C 497.909 477.397 514.296 461.007 514.296 440.784 L 514.296 74.66 C 514.296 54.437 497.909 38.047 477.689 38.047 Z" style="fill-rule: evenodd; paint-order: fill; fill: url(#gradient-1);"/>
  <path d="M475.4285889,36.5714417H36.5714111C16.37146,36.5714417,0,52.9429016,0,73.1429138v365.7142334c0,20.2000122,16.3713989,36.5714111,36.5714111,36.5714111h438.8571777C495.6286011,475.4285583,512,459.0571594,512,438.8571472V73.1429138C512,52.9429016,495.6286011,36.5714417,475.4285889,36.5714417z M288.2272949,324.6959229L256,444.9072571l-32.7523804-120.2113342L256,245.9757538L288.2272949,324.6959229z M353.9147949,386.2397156L256,156.0911865l-97.9147949,230.1485291H107.169487L228.5839081,84.9072647h54.8322601l121.4143372,301.3324585H353.9147949z" style=""/>
</svg>