<?xml version="1.0" encoding="UTF-8"?>
<svg xmlns="http://www.w3.org/2000/svg" xmlns:xlink="http://www.w3.org/1999/xlink" width="64px" height="64px" viewBox="0 0 64 64" version="1.1">
<defs>
<radialGradient id="radial0" gradientUnits="userSpaceOnUse" cx="432.804" cy="45.844" fx="432.804" fy="45.844" r="256.246" gradientTransform="matrix(0.0846302,0.00244937,-0.0022985,0.0797761,-4.705672,26.329632)">
<stop offset="0" style="stop-color:rgb(100%,100%,100%);stop-opacity:1;"/>
<stop offset="1" style="stop-color:rgb(18.039216%,18.039216%,18.039216%);stop-opacity:1;"/>
</radialGradient>
</defs>
<g id="surface1">
<path style=" stroke:none;fill-rule:evenodd;fill:url(#radial0);" d="M 59.578125 4.757812 L 4.792969 4.757812 C 2.269531 4.757812 0.226562 6.804688 0.226562 9.332031 L 0.226562 55.097656 C 0.226562 57.625 2.269531 59.675781 4.792969 59.675781 L 59.578125 59.675781 C 62.101562 59.675781 64.144531 57.625 64.144531 55.097656 L 64.144531 9.332031 C 64.144531 6.804688 62.101562 4.757812 59.578125 4.757812 Z M 59.578125 4.757812 "/>
<path style=" stroke:none;fill-rule:nonzero;fill:rgb(0%,0%,0%);fill-opacity:1;" d="M 59.230469 4.5625 L 4.554688 4.578125 C 2.039062 4.578125 0 6.625 0 9.152344 L 0 54.867188 C 0 57.390625 2.039062 59.4375 4.554688 59.4375 L 59.230469 59.421875 C 61.746094 59.421875 63.785156 57.375 63.785156 54.847656 L 63.785156 9.132812 C 63.785156 6.609375 61.746094 4.5625 59.230469 4.5625 Z M 35.910156 40.585938 L 31.894531 55.613281 L 27.8125 40.589844 L 31.894531 30.746094 Z M 44.09375 48.277344 L 31.894531 19.511719 L 19.695312 48.28125 L 13.351562 48.285156 L 28.476562 10.613281 L 35.308594 10.613281 L 50.433594 48.273438 Z M 44.09375 48.277344 "/>
</g>
</svg>
