<?xml version="1.0" encoding="utf-8"?>
<svg version="1.1" width="512px" height="512px" xmlns="http://www.w3.org/2000/svg">
  <defs>
    <radialGradient gradientUnits="userSpaceOnUse" cx="432.804" cy="45.844" r="256.246" id="gradient-1" gradientTransform="matrix(0.677042, 0.019595, -0.018388, 0.638209, -37.645378, 210.637054)">
      <stop offset="0" style="stop-color: rgba(255, 255, 255, 0);"/>
      <stop offset="1" style="stop-color: rgba(46, 46, 46, 0.8);"/>
    </radialGradient>
  </defs>
  <path d="M 476.634 38.047 L 38.331 38.047 C 18.156 38.047 1.804 54.437 1.804 74.66 L 1.804 440.784 C 1.804 461.007 18.156 477.397 38.331 477.397 L 476.634 477.397 C 496.809 477.397 513.16 461.007 513.16 440.784 L 513.16 74.66 C 513.16 54.437 496.809 38.047 476.634 38.047 Z" style="fill-rule: evenodd; paint-order: fill; fill: url(#gradient-1);"/>
  <path d="M 473.902 36.571 L 36.506 36.571 C 16.373 36.571 0.052 52.943 0.047 73.143 L -0.047 438.857 C -0.052 459.057 16.261 475.429 36.393 475.429 L 473.789 475.429 C 493.922 475.429 510.244 459.057 510.249 438.857 L 510.342 73.143 C 510.347 52.943 494.035 36.571 473.902 36.571 Z M 287.25 324.696 L 255.099 444.907 L 222.487 324.696 L 255.151 245.976 L 287.25 324.696 Z M 352.703 386.24 L 255.174 156.091 L 157.526 386.24 L 106.779 386.24 L 227.867 84.907 L 282.516 84.907 L 403.449 386.24 L 352.703 386.24 Z" style="" transform="matrix(1, -0.000258, 0.000258, 1, -0.06604, 0.065837)"/>
</svg>