<svg width="64" height="64" xmlns="http://www.w3.org/2000/svg" version="1.1">

 <g>
  <title>Layer 1</title>
  <path id="svg_1" d="m59.42857,0.55555l-54.85715,0c-2.52499,0 -4.57143,2.35168 -4.57143,5.25331l0,52.533c0,2.90163 2.04643,5.2533 4.57143,5.2533l54.85715,0c2.525,0 4.57143,-2.35167 4.57143,-5.2533l0,-52.533c0,-2.90163 -2.04642,-5.25331 -4.57143,-5.25331zm-23.40016,41.38763l-4.02841,17.26775l-4.09405,-17.26775l4.09405,-11.30776l4.02841,11.30776zm8.21094,8.84046l-12.23935,-33.05967l-12.23935,33.05967l-6.36446,0l15.1768,-43.28489l6.85403,0l15.17679,43.28489l-6.36447,0z"/>
 </g>
</svg>